<svg width="167" height="217" viewBox="0 0 167 217" fill="none" xmlns="http://www.w3.org/2000/svg">
<path d="M93.5007 44.0012C116.501 51.0012 117.001 93.0012 127.001 135.001C132.466 152.633 130.297 165.666 124.876 175L131.5 178.5V165.5L142.5 168L139.5 155L152 155.5L146 144L158.5 142.5L151.5 132L163.5 128L155 118.5L166 113L157 105L167 98L157 91.5L165.5 83.5L155.5 78L163.5 69L152 64.5L158.5 54.5L146 52L151.5 41.5L139 41L143 28.5L130.5 31L132 18.5L120.5 22L119.5 9L109 15.5L106.5 3L96 11L90.5 0L82.5007 9.5L75.5 0L70 11L60.5 3L57.5 15.5L46.5 9.5L46 22L34.5 19L35.5 30.5L23 29.5L27 40.5L15 41.4995L20 53L8 54.5L14.5 65L3 68.5L11 78.5L0 83.5L9.5 91.5L0 98L9 105L0.5 113L6.89565 117C7.19471 115.755 7.73841 114.546 8.49919 113.5L24.4992 95.4999C28.4992 71 29.4992 58.5 47.0008 44.9995C34.9997 29.5004 52.9992 28.9999 56.5008 41.4995L54.5008 48.9995L63.5008 43.4995L67.5008 51.9995L73.0007 42.4995L82.5007 48.9995L81.5007 38.9995L84.5007 39.5012C93.0007 26.4995 101.501 35.4987 93.5007 44.0012Z" fill="black"/>
<path d="M18.4992 125C12.6404 126.953 9.16549 125.569 7.60872 123L3 127L15 131.5L7.60872 141.5L14.6566 143C15.6771 135.924 17.2745 129.21 18.4992 125Z" fill="black"/>
<path d="M127.001 135.001C117.001 93.0012 116.501 51.0012 93.5007 44.0012C101.501 35.4987 93.0007 26.4995 84.5007 39.5012L81.5007 38.9995L82.5007 48.9995L73.0007 42.4995L67.5008 51.9995L63.5008 43.4995L54.5008 48.9995L56.5008 41.4995C52.9992 28.9999 34.9997 29.5004 47.0008 44.9995C29.4992 58.5 28.4992 71 24.4992 95.4999L8.49919 113.5C7.73841 114.546 7.19471 115.755 6.89565 117C6.3902 119.104 6.58356 121.309 7.60872 123C9.16549 125.569 12.6404 126.953 18.4992 125C17.2745 129.21 15.6771 135.924 14.6566 143C13.4553 151.329 13.0535 160.161 15 166C19.5 179.5 29 189.502 46 194.501V197.5C37.5 195.5 27.3 206.6 40.5 215C43.8333 215.833 52.1 217 58.5 215C64.9 213 65.1667 201.833 64.5 196.5H78.5C77.6667 201.5 77.8 212.2 85 215C88 215.833 95.6 217 102 215C110 212.5 108.001 197.5 97.5007 197.5V194.501C102.919 193.357 109.89 190.496 116 185.421C117.387 184.269 118.73 183.003 120 181.618C121.797 179.657 123.449 177.457 124.876 175C130.297 165.666 132.466 152.633 127.001 135.001Z" fill="white"/>
<path d="M61.5 73.5037H70M61.5 73.5037C58.5 84.5 46.5 80 48 73.5037C48.5 68.5 52.8693 67.3426 56 67.9561M61.5 73.5037C61.264 70.6695 58.7994 68.5047 56 67.9561M70 73.5037C73.5 85.002 86 78.5021 83.5 71.5037C82.2942 68.3679 79.3438 66.9772 76.5 67.2193M70 73.5037C71 69.5 73.5 68 76.5 67.2193M56 67.9561L47 64M76.5 67.2193L81 62M76.5 67.2193L85.5 64.5" stroke="black" stroke-width="2"/>
<ellipse cx="54.5" cy="74.5" rx="2.5" ry="3" fill="black"/>
<ellipse cx="77.5" cy="74.5" rx="2.5" ry="3" fill="black"/>
<path d="M99.0003 99.496C76 93 76 68.5 107 85.996M66.5 95.4999C62.6667 95.3333 53.7 93.2999 48.5 86.4999M66.5 79C64.6667 79.8333 58.9 81.6 50.5 82" stroke="#CDCDCD"/>
<circle cx="47" cy="83.5" r="4" fill="black"/>
</svg>
